<?xml version="1.0" encoding="UTF-8" standalone="no"?>
<svg
   version="1.0"
   viewBox="0 0 609.60033 400.00002"
   id="svg3"
   sodipodi:docname="RDA-Logotype.svg"
   width="609.60034"
   height="400"
   inkscape:version="1.3 (0e150ed6c4, 2023-07-21)"
   xmlns:inkscape="http://www.inkscape.org/namespaces/inkscape"
   xmlns:sodipodi="http://sodipodi.sourceforge.net/DTD/sodipodi-0.dtd"
   xmlns="http://www.w3.org/2000/svg"
   xmlns:svg="http://www.w3.org/2000/svg">
  <defs
     id="defs3" />
  <sodipodi:namedview
     id="namedview3"
     pagecolor="#ffffff"
     bordercolor="#000000"
     borderopacity="0.25"
     inkscape:showpageshadow="2"
     inkscape:pageopacity="0.0"
     inkscape:pagecheckerboard="true"
     inkscape:deskcolor="#d1d1d1"
     inkscape:zoom="1.8915308"
     inkscape:cx="313.76703"
     inkscape:cy="207.50389"
     inkscape:window-width="2560"
     inkscape:window-height="1369"
     inkscape:window-x="-8"
     inkscape:window-y="-8"
     inkscape:window-maximized="1"
     inkscape:current-layer="svg3" />
  <path
     d="m 469.08124,0.29893783 c 0.21844,0.14946383 0.546,0.29893782 0.68255,0.29893782 0.16368,0 0.0823,-0.14947399 -0.13655,-0.29893782 C 469.4088,0.14946383 469.10867,0 468.94489,0 c -0.13655,0 -0.0823,0.14946383 0.13635,0.29893783 z M 139.34539,0.59787565 c -0.21834,0.14946384 -0.2729,0.29893783 -0.13645,0.29893783 0.16378,0 0.46401,-0.14947399 0.68245,-0.29893783 0.21834,-0.14947399 0.30033,-0.29893782 0.13645,-0.29893782 -0.13645,0 -0.46401,0.14946383 -0.68245,0.29893782 z"
     id="path1"
     style="stroke-width:0.285654" />
  <path
     d="m 471.12848,1.225642 c 0.60056,0.2989379 3.84882,2.0028723 7.23352,3.7367178 6.96042,3.5573428 13.45693,7.2342692 20.58112,11.5389512 7.99775,4.872678 19.48933,12.645041 19.1892,12.973869 -0.30033,0.328829 -32.67335,4.484047 -47.11306,6.038528 l -5.04972,0.538084 -4.64028,-3.198623 c -8.21609,-5.620017 -19.68044,-12.585249 -27.62353,-16.740478 -4.61315,-2.391493 -12.39246,-6.2477732 -12.6108,-6.2477732 -0.10922,0 1.8288,1.1658502 4.31272,2.5708572 6.36006,3.617134 12.6107,7.413634 17.49685,10.612257 4.39461,2.869805 13.86627,9.625772 16.86886,12.017264 1.58323,1.255543 1.66502,1.375116 1.09189,1.52458 -1.96545,0.508193 -37.06796,3.467671 -53.6367,4.543839 l -3.02991,0.209255 -1.47402,-1.195741 c -2.94792,-2.361612 -10.67268,-7.921827 -15.31295,-10.941096 -6.49651,-4.274791 -20.39012,-12.465666 -21.15445,-12.465666 -0.10922,0 1.69235,1.195752 4.01259,2.630649 10.31779,6.457039 20.03512,13.482053 27.92376,20.208128 l 2.1018,1.823518 -1.8288,0.209255 c -2.04725,0.209256 -16.29584,0.956595 -27.24142,1.434898 -43.26424,1.853408 -89.39453,1.853408 -132.65867,0 -11.81914,-0.508193 -25.27616,-1.225642 -27.29597,-1.434898 l -1.9108,-0.209255 2.18369,-1.9132 c 7.09697,-6.158091 20.06266,-15.484935 29.15221,-20.925577 3.95783,-2.391502 2.12903,-1.554481 -3.54849,1.584361 -9.63554,5.35097 -19.27098,11.628644 -27.76008,18.085683 l -4.12171,3.108941 -9.4171,-0.657667 c -18.97076,-1.345205 -46.92195,-3.82638 -47.30407,-4.215 -0.30023,-0.298938 6.14162,-5.231397 12.77458,-9.775246 7.09697,-4.902558 14.33048,-9.386615 22.1098,-13.78099 3.60304,-2.032763 6.35996,-3.6470249 6.14162,-3.5573425 -1.44669,0.4782924 -10.12689,4.9025685 -17.19662,8.7887495 -8.92577,4.872667 -16.04997,9.207251 -23.88394,14.588121 l -4.91328,3.348088 -8.8712,-0.986496 C 119.50128,33.391253 91.659309,29.774118 91.386411,29.47518 91.086081,29.146352 104.89779,19.939091 112.86832,15.185997 118.30016,11.927582 130.14663,5.4107614 135.3329,2.8398941 137.24359,1.8833093 138.74494,1.0462773 138.69028,0.98649584 138.58116,0.86692274 128.86372,5.2313967 123.78667,7.7125715 96.408806,21.015259 71.187305,37.755727 52.434882,55.034329 c -2.374698,2.212138 -4.995166,4.63347 -5.86852,5.38084 -2.40213,2.182166 -13.784485,14.94679 -17.03274,19.131899 C 12.500881,101.42928 3.0292161,123.46095 0.35408689,147.37597 c -0.54589707,4.75306 -0.43677861,18.02588 0.16377928,22.86855 2.51134993,20.23802 9.77209683,38.80197 22.46468583,57.3959 22.874032,33.57058 62.426017,63.9426 111.968228,85.97426 2.9207,1.31532 5.34996,2.33173 5.37729,2.27188 0.0539,-0.0295 -1.22824,-0.74726 -2.83871,-1.52451 -4.88594,-2.48127 -19.84421,-10.76178 -24.62104,-13.66144 -8.57088,-5.20152 -25.658281,-16.83015 -25.303392,-17.1888 0.272898,-0.29901 24.812052,-3.55742 41.408012,-5.47066 l 10.20867,-1.19573 4.53116,3.22855 c 9.58089,6.84571 18.23376,12.25642 28.93377,18.14546 5.97784,3.25842 17.49674,9.08772 17.96085,9.08772 0.10922,0 -2.3748,-1.46477 -5.54106,-3.22854 -10.31799,-5.82921 -20.52667,-12.40588 -29.58898,-19.10213 -5.43195,-4.00569 -11.02757,-8.45983 -10.86379,-8.63916 0.273,-0.32898 30.40778,-3.01935 47.87729,-4.30479 l 8.48899,-0.62769 4.83139,3.76652 c 5.78673,4.54386 10.31789,7.80238 16.62329,11.92764 6.90596,4.57373 19.70777,12.077 19.98067,11.74822 0.0823,-0.0599 -1.01001,-0.83698 -2.40203,-1.70394 -7.01508,-4.36453 -16.73251,-11.26998 -23.52915,-16.74043 -3.84881,-3.07909 -10.12688,-8.51967 -10.39978,-8.96814 -0.19111,-0.32877 1.8288,-0.53807 11.19135,-1.04627 58.87753,-3.25842 119.99331,-3.19868 176.96005,0.11958 5.15895,0.32878 9.41711,0.62779 9.47167,0.68753 0.16378,0.17932 -6.35996,5.8292 -10.64535,9.26704 -7.56097,6.0386 -15.34039,11.56889 -23.47469,16.65082 -2.3747,1.49464 -4.23083,2.72024 -4.14894,2.72024 0.35489,0 8.87131,-4.75305 13.23859,-7.38368 8.9531,-5.35097 18.6432,-12.07709 26.36795,-18.23517 l 3.49383,-2.83993 8.65297,0.65766 c 17.60586,1.28544 47.44041,3.97581 47.71341,4.30479 0.2729,0.26894 -8.48909,7.11465 -15.12205,11.77809 -2.51114,1.79365 -6.98774,4.8129 -9.90844,6.69615 -4.80416,3.10897 -7.61553,4.8129 -16.92352,10.22361 -1.58323,0.9268 -2.78425,1.67406 -2.67503,1.67406 0.0823,0 2.07457,-0.92659 4.39471,-2.09255 15.2584,-7.4734 28.85177,-15.60445 42.25414,-25.28998 l 3.4667,-2.48128 8.95299,1.04628 c 17.93353,2.06269 42.3088,5.29123 42.63636,5.62011 0.19121,0.20919 -8.43443,6.36727 -14.82162,10.58225 -9.88121,6.48707 -21.91878,13.512 -32.40035,18.92271 -2.67513,1.34528 -4.80416,2.51104 -4.7496,2.57089 0.13645,0.14955 10.34522,-4.48412 16.70508,-7.56311 6.60573,-3.19857 20.99067,-11.03072 27.13229,-14.79734 52.46291,-31.95636 85.21816,-71.65526 93.73458,-113.56609 1.39202,-6.87558 1.85613,-11.32983 1.99258,-19.43101 0.24567,-13.27273 -1.20101,-23.28714 -5.15894,-35.87234 C 594.26083,92.132368 568.90278,60.86353 531.67104,34.616895 515.10241,22.928459 496.13165,12.196629 475.95987,3.1089412 470.58259,0.68755802 468.8629,0 471.12848,1.225642 Z M 99.629731,34.82615 c 10.181439,1.793627 31.663349,5.231397 35.566719,5.709689 0.92802,0.119573 1.66502,0.298938 1.6378,0.418511 -0.0539,0.149474 -1.80158,1.614262 -3.90338,3.288306 -9.38977,7.533207 -17.5513,15.245819 -25.24873,23.825232 -2.78435,3.079091 -5.65028,6.337506 -6.38739,7.23433 L 99.95729,76.886569 87.919716,76.258782 C 69.058175,75.272348 49.623507,74.136357 47.221377,73.897191 l -2.156359,-0.209296 2.565808,-3.288286 C 56.720474,58.860688 69.221954,46.544476 82.97921,35.60339 c 3.493823,-2.750221 3.903271,-3.019269 4.776726,-2.869795 0.518669,0.08961 5.868724,1.016377 11.873795,2.092555 z m 427.264579,1.046277 c 8.87121,7.025024 15.74974,13.213016 23.1197,20.865735 5.40462,5.620108 14.63061,16.561214 14.27583,16.979705 -0.13655,0.149453 -22.30091,1.464768 -42.49991,2.540915 l -12.1468,0.627787 -2.42926,-2.959508 c -8.24342,-9.894727 -20.49943,-21.792469 -30.95367,-29.983343 -1.99268,-1.55447 -3.60304,-2.929576 -3.63047,-3.07905 0,-0.119573 0.32755,-0.209256 0.70977,-0.209256 1.77424,0 39.00599,-6.068418 46.5124,-7.592988 1.11913,-0.239146 2.23825,-0.418511 2.48392,-0.448402 0.21834,-0.02987 2.26558,1.434888 4.55849,3.258405 z m -375.89346,6.87555 c 11.38246,1.494679 24.45716,3.019259 36.11262,4.185119 5.0225,0.508184 9.38988,0.926695 9.66277,0.986486 0.38222,0.02987 -0.32756,0.837022 -2.45658,2.750222 -8.78932,7.921847 -19.32555,19.430898 -25.22161,27.56195 l -0.90068,1.285545 h -3.02992 c -4.80406,0 -55.87484,-2.062786 -56.09328,-2.27198 -0.24567,-0.239167 5.07705,-7.20446 9.79932,-12.824466 3.57571,-4.21498 7.94309,-8.908293 12.99282,-13.81083 2.70236,-2.66055 9.74466,-9.027907 9.99043,-9.057797 0.0823,0 4.2035,0.538084 9.14411,1.195751 z m 319.41796,1.106069 c 7.3153,6.427148 15.55872,14.827318 21.26357,21.672926 3.52125,4.274721 8.78931,11.180273 8.78931,11.568893 0,0.119482 -2.18369,0.32888 -4.83128,0.448361 -2.67513,0.08941 -9.47177,0.38862 -15.09482,0.627787 -17.05997,0.74737 -33.46492,1.345286 -36.35819,1.345286 h -2.70236 l -0.737,-0.956666 C 432.83217,68.09786 424.53419,59.010142 415.3082,50.669804 c -1.41946,-1.285423 -2.62047,-2.421393 -2.67503,-2.540966 -0.0274,-0.119573 0.95534,-0.298938 2.18369,-0.418511 10.75457,-0.956595 38.95143,-4.215 47.84986,-5.530335 2.1018,-0.298938 4.12171,-0.567975 4.4765,-0.597876 0.43678,-0.02987 1.52868,0.74735 3.27559,2.27193 z M 47.849266,80.115114 c 8.352438,0.807111 28.415095,2.540916 38.132429,3.288285 4.36738,0.32888 8.079642,0.657658 8.243421,0.687528 0.19111,0.02946 -0.518668,1.315314 -1.583132,2.899665 -4.694938,6.875581 -9.526325,15.454998 -12.829139,22.808908 -0.900786,2.00294 -1.719581,3.73675 -1.828801,3.82636 -0.19111,0.2094 -13.757257,-0.5081 -37.040737,-1.97297 -16.623292,-1.01641 -16.514072,-1.01641 -16.323064,-1.61422 0.436779,-1.37516 5.131717,-11.688481 6.632959,-14.528304 3.548484,-6.785969 9.307987,-15.993067 9.990333,-15.993067 0.218339,0 3.166366,0.268936 6.605731,0.597815 z m 522.309194,1.554379 c 3.54848,5.291229 7.47908,12.226652 10.56346,18.563957 1.77424,3.70688 4.44937,10.07425 4.28559,10.25368 -0.10922,0.14935 -19.1892,1.37505 -36.35839,2.33172 -7.20609,0.41849 -14.00272,0.83698 -15.06739,0.92659 l -1.99248,0.14956 -1.74701,-3.97592 c -3.13904,-7.08477 -7.77932,-15.365278 -12.47425,-22.360442 -1.22835,-1.793647 -2.1838,-3.348128 -2.12913,-3.3781 0.0538,-0.05994 4.58571,-0.478231 10.07222,-0.896722 11.65545,-0.926694 31.71801,-2.690369 37.39552,-3.288285 6.44185,-0.657658 5.75951,-0.807111 7.45186,1.673962 z M 222.81664,81.101549 c 14.49426,2.540915 23.77482,8.908394 29.64344,20.357601 3.71226,7.29417 5.2955,14.7376 5.54117,25.91787 0.27289,12.70478 -1.11913,20.74622 -5.0225,28.99686 -1.99268,4.21498 -4.39471,7.68269 -7.83397,11.24011 l -2.83871,2.92944 8.98033,29.29596 c 4.9406,16.11265 8.98043,29.32564 8.98043,29.35551 0,0.0599 -6.98775,0.0894 -15.5314,0.0894 H 229.1767 l -1.22834,-4.27483 c -2.67513,-9.29691 -12.44702,-43.82416 -12.44702,-44.00348 0,-0.0894 -0.5459,-0.14946 -1.22835,-0.14946 h -1.22824 V 229.2843 H 184.11088 V 80.353976 l 17.96076,0.149453 c 14.84915,0.09042 18.42486,0.209195 20.745,0.597815 z m 82.18824,0 c 13.1568,2.30185 22.79225,8.579514 29.91654,19.490651 2.07447,3.1688 5.18618,9.83509 6.5783,14.05007 2.01991,6.18795 3.49383,13.75116 4.39471,22.36044 0.60046,5.8294 0.68235,28.45888 0.13645,34.28819 -1.93802,20.41734 -6.87863,34.10856 -15.88628,43.97351 -7.31541,8.04145 -16.51408,12.49559 -28.25142,13.72119 -1.63769,0.14956 -9.79933,0.29901 -18.06998,0.29901 H 268.72859 V 80.384151 l 16.73241,0.119583 c 13.75715,0.09042 17.19652,0.209195 19.54388,0.597815 z m 99.76698,0.119583 c 0.30033,1.554481 25.27617,146.120378 25.46717,147.256368 l 0.16378,1.10602 -14.57605,-0.0599 -14.54882,-0.0894 -1.8288,-13.15325 c -1.0099,-7.23423 -1.85603,-13.18311 -1.85603,-13.24285 -0.0274,-0.0295 -4.58582,-0.0295 -10.18144,0 l -10.15411,0.0904 -1.80158,13.06353 c -1.01,7.20436 -1.88346,13.15315 -1.96525,13.24286 -0.0823,0.0894 -6.46918,0.11958 -14.19393,0.0894 l -14.03026,-0.0894 12.96559,-74.49509 12.99302,-74.524854 h 33.38294 z m -290.48419,4.274822 c 12.25591,0.836981 26.14962,1.703935 37.61396,2.271879 5.48651,0.298907 10.01767,0.568046 10.07223,0.597916 0.0539,0.05893 -0.87346,1.763777 -2.07457,3.766619 -4.01239,6.755997 -8.02499,14.976662 -10.70001,21.912082 l -1.14646,2.98938 -1.69225,-0.06 c -0.92812,-0.0599 -6.8514,-0.2989 -13.1568,-0.53807 -14.00272,-0.56805 -43.073034,-1.943 -43.182254,-2.06258 -0.163779,-0.17943 2.538579,-7.14472 4.39471,-11.38957 2.1018,-4.783026 5.350056,-11.150403 7.915764,-15.484864 1.44668,-2.451305 1.58323,-2.60086 2.48402,-2.60086 0.51856,0 4.77672,0.269139 9.47166,0.597917 z m 393.58122,3.079091 c 2.86614,4.99222 5.7595,10.701838 7.61563,15.006535 1.85614,4.30469 4.23083,10.58245 4.06705,10.76178 -0.27289,0.29891 -53.30903,2.63063 -56.31162,2.48117 l -1.85613,-0.0894 -0.8189,-2.2419 c -2.1017,-5.91902 -7.69742,-17.308485 -11.62802,-23.675862 -0.79167,-1.255573 -1.41946,-2.361591 -1.41946,-2.421434 0,-0.05893 2.04725,-0.209296 4.58572,-0.328879 7.15163,-0.298907 29.50699,-1.644092 40.17977,-2.391462 5.32273,-0.388519 10.56356,-0.717398 11.6008,-0.747268 l 1.91069,-0.02946 z M 33.982789,116.88427 c 11.819236,1.16597 30.516998,2.8698 36.440179,3.31826 2.565808,0.17933 4.722167,0.44836 4.831387,0.53807 0.0823,0.0894 -0.382118,1.94311 -1.037133,4.12537 -2.29291,7.4734 -3.848813,15.39526 -4.55849,23.16766 l -0.354889,3.6768 -21.809466,0.32878 c -12.010345,0.2094 -24.075046,0.35875 -26.831964,0.38872 l -4.967937,0.0295 0.13655,-1.58435 c 0.05385,-0.83699 0.272898,-3.16871 0.436677,-5.14178 0.627787,-7.7723 2.429359,-17.03934 4.913277,-25.43953 l 1.364793,-4.63347 1.146455,0.17932 c 0.627787,0.0894 5.268166,0.56794 10.290561,1.04628 z m 554.436651,3.40787 c 2.89347,9.80522 4.53116,19.01252 5.2955,29.59488 l 0.19101,2.6605 -10.34513,-0.17943 c -5.70484,-0.11948 -17.74251,-0.29891 -26.7774,-0.41849 l -16.43218,-0.17932 -0.13655,-1.22561 c -0.79157,-7.35391 -1.14636,-9.89493 -1.8288,-13.48212 -0.79157,-4.33456 -2.42936,-10.73181 -3.60305,-14.28913 -0.464,-1.40503 -0.57322,-2.06279 -0.38222,-2.1524 0.19111,-0.0295 4.64038,-0.44846 9.88122,-0.86695 9.44444,-0.77724 35.34838,-3.22855 39.57921,-3.73665 3.4666,-0.41849 3.08448,-0.77724 4.55839,4.27472 z m -490.509391,2.12253 c 12.174021,0.89682 24.539151,1.7338 37.450181,2.54091 5.40462,0.32888 9.82656,0.62779 9.88122,0.65766 0.0274,0.06 -0.30033,1.49474 -0.73711,3.22855 -1.47391,5.70961 -3.00249,15.30564 -3.30271,20.77609 l -0.0823,1.19583 -12.01024,0.17933 c -6.60563,0.0894 -19.68044,0.23916 -29.07022,0.2989 l -17.059965,0.11959 0.0823,-1.943 c 0.273,-6.30764 1.583234,-15.15619 3.357476,-22.68933 1.037336,-4.3945 1.228344,-5.1119 1.473912,-5.1119 0.05385,0 4.558489,0.32888 10.017663,0.74737 z m 424.944441,2.89966 c 1.85603,7.65282 3.13893,15.87349 3.71226,23.67586 l 0.19101,2.6605 -10.75467,-0.20929 c -5.92318,-0.0894 -18.99799,-0.26904 -29.09744,-0.35875 l -18.34297,-0.2092 -0.16378,-1.67406 c -0.76434,-8.07131 -1.85614,-14.7376 -3.35748,-20.5668 l -0.79146,-3.01935 2.21091,-0.17932 c 1.22835,-0.11959 5.65029,-0.38862 9.85389,-0.62779 9.30799,-0.56794 32.10013,-2.12242 38.62387,-2.6605 2.62036,-0.20929 5.29549,-0.41859 5.89585,-0.44836 l 1.11922,-0.0295 z m -470.283057,34.52726 16.568631,0.17932 0.163779,3.16881 c 0.573228,9.86485 1.883462,17.63715 4.694939,27.56196 0.10922,0.41849 -0.218339,0.5081 -1.99258,0.68752 -15.394948,1.34519 -33.929032,3.07909 -40.971338,3.76652 -4.831387,0.5083 -9.034988,0.89682 -9.307987,0.89682 -0.382118,0 -0.682346,-0.65765 -1.337463,-3.07899 -2.511248,-8.93816 -4.121711,-19.40103 -4.585718,-29.47519 l -0.19111,-4.30469 10.208773,0.17943 c 5.622953,0.11958 17.660527,0.2989 26.750074,0.41849 z m 541.170737,4.18511 c -0.35479,9.44636 -2.12903,20.77609 -4.72217,29.68438 -0.546,1.91323 -0.79157,2.39146 -1.20112,2.39146 -0.30012,0 -3.82128,-0.32877 -7.8611,-0.74727 -13.86647,-1.40502 -42.63646,-4.03565 -44.02848,-4.03565 -0.38222,0 -0.32756,-0.44836 0.49134,-3.52755 2.23814,-8.42986 3.54848,-17.06922 3.95783,-26.21668 l 0.0823,-1.49464 20.33546,-0.32888 c 11.19144,-0.17942 23.20169,-0.32877 26.72284,-0.35875 l 6.38719,-0.0599 z m -471.29297,-3.31826 18.4521,0.20929 0.19111,3.52746 c 0.32755,6.3374 1.50124,14.85718 2.75691,19.99895 0.21824,0.89682 0.32746,1.67396 0.24567,1.76368 -0.0538,0.0894 -1.99268,0.26893 -4.28549,0.38851 -9.88121,0.56805 -28.55164,1.82362 -40.12521,2.66061 -6.878526,0.5082 -12.63803,0.86685 -12.829038,0.77724 -0.19111,-0.0904 -0.682448,-1.67407 -1.091896,-3.52746 -1.528572,-7.23433 -2.511147,-14.8273 -2.838705,-22.18112 l -0.163779,-4.18511 10.618018,0.2092 c 5.841393,0.0894 18.9162,0.26914 29.07031,0.35875 z m 404.22667,2.27198 c 0,3.6769 -0.43668,8.60938 -1.22824,14.319 -0.60056,4.27493 -2.18379,12.46572 -2.45669,12.76463 -0.0539,0.0904 -6.90586,-0.35875 -15.20384,-0.95657 -14.90361,-1.07625 -30.16221,-2.06268 -36.79507,-2.42143 -1.88336,-0.0904 -3.90337,-0.23907 -4.53116,-0.32888 l -1.11912,-0.14935 0.51867,-2.1524 c 1.36479,-5.88904 2.67492,-16.05291 2.67492,-20.68638 0,-1.52461 0.10922,-2.30185 0.35489,-2.39146 0.273,-0.11959 26.99575,-0.47834 52.40836,-0.68763 l 5.37728,-0.06 z m -378.35005,36.67955 c 2.6477,7.38378 6.5783,15.87358 10.26333,22.18112 0.70968,1.16576 1.20102,2.18216 1.14636,2.24201 -0.0539,0.0894 -4.83139,0.41849 -10.59079,0.71739 -14.00293,0.77724 -23.33804,1.37516 -36.22184,2.27198 -5.89585,0.38862 -10.83646,0.65766 -10.97301,0.56795 -0.87346,-0.59782 -7.479085,-14.0201 -9.771893,-19.90924 -1.474013,-3.76662 -3.685034,-10.16377 -3.548483,-10.28335 0.05385,-0.0295 7.888532,-0.44846 17.414756,-0.89682 25.54906,-1.19574 34.1747,-1.55448 37.53207,-1.61423 l 3.02982,-0.0295 z m 341.77342,-3.70678 c 26.3134,1.19573 30.84446,1.4349 30.84446,1.70383 0,0.53808 -2.29281,7.02504 -3.95783,11.18028 -2.07457,5.14177 -3.95803,9.08771 -7.04241,14.88705 l -2.23835,4.12536 -2.32004,-0.17942 c -5.73227,-0.47823 -25.08505,-1.70383 -37.66852,-2.42133 -7.5883,-0.41849 -14.7126,-0.86696 -15.88629,-0.98654 l -2.07457,-0.20919 1.88346,-3.34813 c 4.17627,-7.4734 8.16154,-16.32195 10.37256,-23.07784 l 0.92791,-2.78019 5.59572,0.17933 c 3.08448,0.11958 12.77459,0.53807 21.5639,0.92679 z m -412.988652,3.94594 c 1.255573,3.378 3.766822,8.96804 5.704843,12.7944 1.99258,3.8862 7.014975,12.46571 8.54365,14.58824 0.464007,0.62768 0.791566,1.16576 0.736905,1.2256 -0.05385,0.0295 -5.568293,0.5082 -12.255913,1.04628 -6.687518,0.53807 -18.58844,1.55448 -26.477074,2.30175 -7.888533,0.7175 -14.412272,1.31531 -14.494162,1.31531 -0.272897,0 -3.848813,-5.85917 -6.38729,-10.46277 -1.310133,-2.39136 -3.439365,-6.69605 -4.749497,-9.56595 -2.26558,-4.99222 -4.858718,-11.56879 -4.640278,-11.77809 0.191008,-0.17942 47.222078,-3.07899 50.90701,-3.13883 l 2.456689,-0.0295 z m 471.565862,-0.95656 c 7.04241,0.41849 18.06997,1.07615 24.48459,1.49464 6.41452,0.41849 12.03748,0.74727 12.47425,0.74727 0.51857,0 0.8189,0.14955 0.8189,0.41859 0,1.31531 -5.04972,13.03366 -8.18886,19.01242 -2.01981,3.82625 -6.93319,12.10696 -7.36987,12.40587 -0.13644,0.0894 -6.0325,-0.38872 -13.15669,-1.04638 -12.01025,-1.10602 -30.7899,-2.69037 -37.25908,-3.1687 -1.5558,-0.11958 -2.81148,-0.26904 -2.81148,-0.35875 0,-0.0894 1.33747,-2.33172 2.94793,-4.96235 1.63779,-2.6605 3.82148,-6.36728 4.83149,-8.25053 2.07447,-3.85644 5.97784,-12.31627 6.98775,-15.18606 l 0.65511,-1.85349 h 1.3648 c 0.76423,0 7.15152,0.32898 14.22116,0.74747 z m -380.75208,37.27736 c 6.05963,8.40009 15.2585,18.92271 22.1098,25.31995 1.85613,1.73391 3.30281,3.16881 3.24825,3.22855 -0.0274,0.0599 -2.70236,0.35875 -5.92328,0.68753 -15.94085,1.64419 -43.04581,4.93248 -47.90453,5.8293 -0.737,0.14945 -1.20091,-0.17932 -4.50383,-3.22855 -7.97042,-7.38378 -15.9955,-16.14262 -22.05513,-24.12422 -3.22093,-4.21508 -6.11439,-8.37021 -5.97784,-8.51967 0.16378,-0.20929 14.87628,-0.86695 48.53231,-2.21214 3.22092,-0.11958 6.79674,-0.26903 7.94309,-0.26903 l 2.1018,-0.0599 z m 296.65314,-2.60076 c 14.35762,0.56795 30.84446,1.25558 35.12995,1.52461 l 3.19359,0.2093 -2.42936,3.46751 c -4.12171,5.91901 -7.77941,10.37326 -14.1666,17.36832 -5.26816,5.76946 -13.04748,13.48213 -14.90361,14.82731 -0.46401,0.29891 -1.58323,0.23907 -6.82397,-0.5082 -9.03498,-1.25547 -29.12487,-3.67701 -39.44276,-4.75316 -4.85872,-0.5081 -8.87121,-0.95656 -8.89854,-0.98643 -0.0274,-0.0295 1.25568,-1.28544 2.83881,-2.75021 6.79664,-6.27767 18.88887,-20.23802 23.9386,-27.59193 l 1.09179,-1.61423 4.36738,0.17933 c 2.40213,0.11958 9.66288,0.38872 16.10472,0.62778 z m -364.53833,5.59014 c 7.50641,9.62579 18.34297,20.62664 29.31598,29.7741 l 3.82138,3.1687 -11.87369,1.85349 c -9.93588,1.55448 -29.234093,4.84277 -36.030832,6.15808 l -1.80147,0.35875 -2.020012,-1.61432 C 72.661319,271.94292 64.827345,264.5891 56.502034,255.47152 50.251294,248.59594 42.526541,239.23918 42.853998,238.9104 c 0.13655,-0.14955 13.293147,-0.98643 31.799799,-1.97307 7.724855,-0.41849 14.740034,-0.80701 15.558829,-0.86685 0.818896,-0.06 2.784247,-0.11958 4.367379,-0.14945 l 2.866036,-0.0295 z m 429.22983,-2.60076 c 25.54906,1.37516 35.21183,1.97297 36.38552,2.18227 l 1.17388,0.20919 -2.34757,3.13884 c -6.66018,8.87842 -17.33296,20.29786 -27.02307,28.93711 -4.64028,4.12537 -11.08213,9.32689 -11.5188,9.32689 -0.21834,0 -3.30292,-0.53808 -6.8513,-1.19573 -10.37255,-1.88336 -18.23376,-3.22855 -30.87179,-5.20152 l -11.81923,-1.85349 2.53848,-2.09255 c 10.61822,-8.63926 22.62846,-20.74612 30.65344,-30.85025 l 2.67503,-3.34813 h 1.66512 c 0.92792,0 7.83387,0.32888 15.34029,0.74737 z"
     id="path2"
     style="stroke-width:0.285654" />
  <path
     d="m 213.20853,109.02226 c -0.0823,0.0904 -0.16378,10.25348 -0.16378,22.56974 v 22.36044 h 1.58313 c 3.43926,0 6.52374,-1.37505 8.9531,-4.00568 1.85603,-2.06269 3.05714,-4.48402 3.98526,-8.16103 0.5459,-2.12242 0.60046,-3.04911 0.60046,-10.40293 0,-7.44362 -0.0274,-8.25063 -0.60046,-10.46277 -1.66512,-6.48696 -4.55859,-10.04438 -9.19877,-11.29986 -1.93802,-0.53807 -4.91338,-0.86685 -5.15894,-0.59791 z m 84.59027,1.04638 c -0.0823,0.20919 -0.10922,20.50695 -0.0823,45.07953 l 0.0823,44.69122 1.50134,-0.0904 c 6.25074,-0.32878 11.21858,-5.08193 14.08472,-13.39241 1.50124,-4.39431 2.59313,-10.88116 3.1117,-18.35466 0.35479,-5.20152 0.35479,-21.10487 0,-26.30639 -1.14645,-17.03944 -4.85872,-26.6951 -11.60069,-30.16282 -2.48402,-1.31531 -6.8514,-2.18216 -7.09707,-1.46466 z m 89.69466,19.66997 c -0.21824,0.80721 -6.46908,45.64768 -6.38719,45.79714 0.0538,0.14945 2.92069,0.23916 6.38719,0.23916 h 6.25084 v -0.71739 c 0,-0.68763 -5.89596,-44.09321 -6.11429,-45.02 -0.0539,-0.23917 -0.10922,-0.38852 -0.13655,-0.29891 z m 81.31488,186.23767 c -0.21844,0.14945 -0.273,0.29901 -0.13644,0.29901 0.16377,0 0.464,-0.14956 0.68234,-0.29901 0.21834,-0.14946 0.30033,-0.29891 0.13655,-0.29891 -0.13655,0 -0.46411,0.14945 -0.68245,0.29891 z M 64.008449,346.94621 c -2.1018,0.59781 -3.930703,2.06258 -5.186175,4.09539 -1.310336,2.12243 -1.747013,4.15524 -1.583233,7.44353 0.191109,4.00568 1.119124,5.91891 7.888634,16.08278 5.677512,8.54964 6.660188,10.88136 6.469078,15.09634 -0.191109,3.91607 -1.528572,5.94889 -4.531159,6.90535 -2.156359,0.68763 -4.585718,0.23917 -7.697423,-1.46466 -1.283005,-0.68753 -2.40213,-1.28545 -2.51135,-1.34519 -0.136347,-0.0599 -0.218338,0.7174 -0.218338,1.70383 v 1.82352 l 1.637793,0.89682 c 4.367379,2.42144 9.471766,2.42144 12.501581,0 2.511248,-2.00284 3.87594,-5.20141 3.87594,-9.2072 0,-5.38084 -1.58303,-9.02797 -7.779312,-17.6971 -5.131616,-7.20436 -6.414519,-9.80522 -6.63296,-13.27272 -0.05385,-1.16597 0.02743,-2.69047 0.19111,-3.40787 0.409448,-1.58446 1.992682,-3.55743 3.439365,-4.27493 2.1018,-1.04617 5.568292,-0.47833 8.516319,1.4349 l 1.173786,0.74737 v -3.85633 l -1.637793,-0.80701 c -1.583132,-0.74747 -4.312821,-1.37516 -5.732173,-1.34529 -0.382118,0 -1.364794,0.2093 -2.18369,0.44847 z m 507.023461,-0.17943 c -6.44185,1.25557 -10.64545,6.60654 -12.52891,15.84361 -0.49134,2.48128 -0.57312,3.82647 -0.57312,10.76179 0,7.14451 0.0823,8.22076 0.62768,11.06069 1.52868,7.53323 4.39481,12.10696 9.2262,14.58804 1.50124,0.74737 1.85603,0.80721 5.15884,0.80721 3.16637,0 3.71227,-0.0904 5.18628,-0.74737 l 1.63779,-0.74737 0.0823,-5.47045 c 0.0274,-2.98938 0.0274,-5.44069 -0.0539,-5.44069 -0.0539,0 -0.8189,0.35875 -1.69245,0.80711 -1.22825,0.62779 -2.04714,0.83699 -3.38471,0.83699 -3.08447,0 -4.69494,-1.6441 -5.78663,-5.97876 -0.51877,-2.1523 -0.57333,-3.13883 -0.57333,-9.56585 -0.0274,-6.45709 0.0274,-7.41365 0.57333,-9.53618 1.14636,-4.54376 2.53838,-6.21782 5.37729,-6.39725 1.5558,-0.11948 2.18358,0.06 4.85861,1.28545 0.43678,0.20929 0.46411,-0.11959 0.40945,-5.41071 l -0.0823,-5.64998 -1.41935,-0.50821 c -1.71968,-0.62778 -5.2135,-0.89682 -7.04241,-0.53807 z M 184.493,347.18527 c -4.44917,1.58435 -7.88843,7.41376 -9.28055,15.72403 -0.60056,3.43784 -0.8189,13.93059 -0.38212,17.93627 0.95534,9.2073 4.03982,15.81385 8.4072,18.14547 2.07437,1.07624 5.4864,1.16586 7.50631,0.17942 l 1.28291,-0.65766 v -3.25841 l -1.55591,0.7174 c -1.93802,0.86695 -4.14894,0.92669 -5.67751,0.14945 -3.43926,-1.7338 -6.05973,-7.56301 -6.96052,-15.57458 -0.35479,-3.25831 -0.35479,-11.38946 0,-14.64798 1.20112,-10.61223 5.54107,-17.06921 10.67278,-15.87348 0.73701,0.17932 1.85613,0.59781 2.42926,0.92669 l 1.0919,0.59792 v -1.79365 c 0,-1.76378 0,-1.79365 -1.00991,-2.27188 -1.36489,-0.65766 -5.07716,-0.83708 -6.52384,-0.29901 z M 0.68164545,373.22272 v 26.15694 H 3.6842317 v -20.86581 l 2.6750277,-0.11948 c 1.4466831,-0.0599 2.6750277,-0.0295 2.7295869,0.0589 0.027432,0.0894 1.9652507,4.78302 4.2581597,10.46277 l 4.230931,10.31332 1.774242,0.0894 c 0.982676,0.0599 1.801572,0.0295 1.801572,-0.0295 0,-0.0599 -2.020012,-4.99222 -4.50393,-10.97097 -2.456588,-5.97876 -4.476498,-10.91124 -4.421837,-10.91124 0.02743,-0.0295 0.709574,-0.44846 1.528471,-0.92669 4.176371,-2.42134 6.5784,-7.53324 6.5784,-13.87075 0,-4.96224 -1.474014,-9.14735 -4.17627,-11.83783 -2.702358,-2.6606 -6.005173,-3.677 -11.9830155,-3.70677 H 0.68164545 Z M 10.371751,350.77257 c 4.31282,1.43489 6.5784,5.05196 6.878628,10.941 0.245669,4.813 -0.764236,8.1909 -3.220925,10.79175 -1.856131,1.97298 -3.712263,2.69037 -7.3971953,2.89967 l -2.948027,0.14945 v -12.55532 c 0,-6.90545 0.082296,-12.64504 0.2183385,-12.7946 0.3003297,-0.32878 4.9132768,0.0599 6.4691808,0.56805 z m 21.154451,22.45015 v 26.15694 h 16.377623 v -2.98938 H 34.528686 v -21.82237 h 12.010346 v -2.98938 H 34.528686 v -21.52336 h 13.10214 v -2.98938 H 31.526202 Z m 54.046146,0 v 26.15694 h 16.377522 v -2.98938 H 88.574833 v -21.82237 h 12.010347 v -2.98938 H 88.574833 l 0.05385,-10.70194 0.0823,-10.67207 6.632959,-0.0894 6.632958,-0.0589 -0.0823,-1.43489 -0.0823,-1.40513 -8.106973,-0.0894 -8.1341,-0.0599 z m 30.216662,-0.38862 c -2.81157,14.19942 -5.10438,25.97761 -5.10438,26.15694 0,0.26903 0.46401,0.38862 1.44668,0.38862 h 1.41946 l 1.39202,-7.2641 1.36479,-7.23433 6.19618,-0.0894 6.19618,-0.0599 0.13655,0.65766 c 0.32746,1.58435 2.59304,13.63148 2.59304,13.78103 0,0.11959 0.73711,0.2092 1.66512,0.2092 1.44679,0 1.6378,-0.0589 1.50125,-0.53808 -0.16368,-0.59791 -10.26334,-51.3573 -10.26334,-51.59646 0,-0.0904 -0.76423,-0.17933 -1.71958,-0.17933 h -1.71968 z m 9.4989,-6.18795 c 1.41945,7.56301 2.6478,14.04997 2.72969,14.40862 l 0.13645,0.68762 h -5.59563 c -3.08447,0 -5.59572,-0.0904 -5.59572,-0.17932 0,-0.2093 5.04972,-26.84456 5.32272,-28.18975 0.0823,-0.38862 0.21834,-0.65765 0.273,-0.56794 0.0538,0.0599 1.28281,6.30753 2.72949,13.84077 z m 19.78976,6.5467 v 26.18681 h 3.00248 v -20.92555 l 2.18369,-0.0599 c 1.20102,-0.0295 2.40213,-0.0599 2.6477,-0.0599 0.35489,-0.0295 1.47401,2.42133 4.72217,10.4329 l 4.25826,10.46278 1.8288,0.0894 1.8288,0.0894 -0.62779,-1.58445 c -0.35489,-0.86685 -2.40192,-5.79933 -4.53116,-10.97098 -2.12903,-5.14167 -3.84861,-9.38652 -3.79405,-9.44636 0.0538,-0.0295 0.73691,-0.44847 1.52847,-0.89672 2.78425,-1.6443 5.21361,-5.29134 6.08707,-9.11769 0.54589,-2.39157 0.464,-7.80228 -0.13645,-10.01442 -1.39202,-5.1117 -4.23093,-8.22066 -8.76209,-9.62579 -0.79157,-0.26893 -3.22093,-0.5081 -5.78673,-0.59781 l -4.44917,-0.17943 z m 7.88843,-22.8089 c 2.70236,0.47823 4.2036,1.31531 5.86872,3.28828 1.0918,1.28545 1.63779,2.24211 2.04714,3.61717 1.61046,5.38084 0.62779,11.74821 -2.32014,15.00663 -0.60056,0.62779 -1.85603,1.55448 -2.81147,2.06268 -1.55591,0.80711 -2.12903,0.9267 -4.72227,1.04628 l -2.94793,0.14945 v -25.49927 h 1.58313 c 0.84623,0 2.34757,0.14935 3.30282,0.32878 z m 49.97899,22.8089 v 26.18681 h 3.00259 v -24.81175 l 7.3153,0.0599 7.28808,0.0894 0.0823,12.31606 0.0538,12.34613 h 3.00258 l -0.0538,-26.09709 -0.0823,-26.06742 -1.41936,-0.0894 -1.44668,-0.0904 v 24.54271 h -14.73993 l -0.0538,-12.19658 -0.0823,-12.16681 -1.41946,-0.0894 -1.44668,-0.0904 z m 47.98642,-25.94774 c -0.13645,0.11959 -0.21834,11.89767 -0.21834,26.18681 v 25.94774 H 255.49 c 5.26816,0 6.87863,-0.26904 9.28065,-1.52451 4.31272,-2.24201 7.23342,-6.99517 8.65277,-14.16965 0.68245,-3.46772 0.98268,-13.12338 0.51867,-17.03935 -1.2829,-10.73181 -5.04973,-16.86012 -11.60079,-18.89293 -1.52858,-0.47824 -11.08223,-0.9266 -11.40979,-0.50811 z m 10.31799,7.2641 c 2.53838,1.25558 4.55839,4.78303 5.48651,9.59592 0.70967,3.67691 0.70967,14.91692 0,18.50412 -1.22835,6.24789 -3.84882,9.68563 -7.72486,10.10412 l -1.47391,0.17943 v -38.95153 h 1.31013 c 0.70968,0 1.77424,0.26904 2.40213,0.56794 z m 28.36054,-6.78576 c -0.0539,0.38852 -2.15636,11.98728 -4.64038,25.79828 -2.48392,13.8108 -4.58572,25.28998 -4.64028,25.46931 -0.0823,0.299 0.65512,0.38862 3.22093,0.38862 h 3.33004 l 0.90089,-5.59014 c 0.49123,-3.04912 0.95534,-5.67975 1.03713,-5.8292 0.0823,-0.11959 2.1018,-0.23917 4.4766,-0.23917 4.28539,0 4.36738,0 4.50383,0.65766 0.19111,0.92669 1.77424,10.46277 1.77424,10.76168 0,0.11958 1.52857,0.23917 3.41203,0.23917 1.88336,0 3.41204,-0.0894 3.41204,-0.2092 0,-0.11958 -2.07457,-11.74822 -4.64038,-25.88789 -2.53858,-14.10991 -4.64038,-25.79829 -4.64038,-25.94784 0,-0.14946 -1.58303,-0.26894 -3.68483,-0.26894 -3.57581,0 -3.68503,0.0295 -3.82148,0.65766 z m 5.45917,23.31701 c 0.8189,5.05206 1.50124,9.38662 1.50124,9.62579 0,0.41849 -0.51856,0.47833 -3.43926,0.47833 -3.13903,0 -3.41193,-0.0295 -3.27548,-0.53807 0.0538,-0.26914 0.84612,-4.84287 1.71958,-10.16397 0.95534,-6.00853 1.63779,-9.47624 1.77424,-9.11749 0.10922,0.29891 0.87356,4.66344 1.71968,9.71541 z m 15.2585,-23.58615 c -0.0539,0.20929 -0.0823,1.79365 -0.0539,3.52745 l 0.0823,3.10896 3.22092,0.0904 3.1937,0.0894 v 45.10961 h 6.82397 v -45.13937 h 6.27807 v -7.17449 h -9.69011 c -7.77931,0 -9.74456,0.0894 -9.85378,0.38852 z m 32.78248,0.26914 c -0.0823,0.38852 -2.18369,11.92754 -4.64028,25.64873 -2.48392,13.72118 -4.55849,25.20036 -4.61305,25.49937 -0.10922,0.47824 0.13645,0.50811 3.19359,0.44826 l 3.30292,-0.0894 0.87335,-5.35087 c 0.49134,-2.92964 0.95545,-5.5304 1.03734,-5.73959 0.10912,-0.32898 1.06446,-0.4186 4.50373,-0.4186 4.31282,0 4.39481,0 4.53116,0.65766 0.13655,0.7175 1.77424,10.70194 1.77424,10.88127 0,0.0599 1.5559,0.11958 3.43936,0.11958 3.43927,0 3.43927,0 3.33005,-0.68753 -0.0823,-0.35875 -2.21092,-12.13684 -4.7494,-26.15703 l -4.61315,-25.46931 h -3.60304 c -3.52116,0 -3.63027,0.0295 -3.76682,0.65766 z m 5.43184,23.40672 c 0.84633,5.08193 1.52867,9.44636 1.52867,9.62569 0,0.29891 -0.87355,0.38872 -3.43926,0.38872 -3.43937,0 -3.43937,0 -3.30292,-0.68763 0.0823,-0.35875 0.87356,-4.93248 1.71969,-10.19374 1.01,-5.97875 1.66502,-9.32688 1.77424,-8.96813 0.13655,0.32888 0.90078,4.72318 1.71958,9.83509 z m 40.86222,-22.5099 c -0.68235,3.70678 -8.76199,50.25128 -8.76199,50.49035 0,0.14945 2.18359,0.26904 4.88595,0.26904 4.42193,0 4.91327,-0.0589 5.04972,-0.53808 0.0823,-0.26904 0.32756,-2.06268 0.57333,-3.94594 0.70958,-5.38084 0.16368,-4.78293 4.25806,-4.78293 3.41203,0 3.52125,0.0295 3.63037,0.65766 0.0823,0.38852 0.32766,2.1523 0.57323,3.97582 0.24577,1.79364 0.49134,3.58719 0.5459,3.94594 0.13655,0.68753 0.19121,0.68753 5.18627,0.68753 3.22093,0 5.04983,-0.11959 5.04983,-0.29891 0,-0.38862 -8.70743,-50.81923 -8.89854,-51.50686 -0.13645,-0.44836 -0.65512,-0.5081 -5.97784,-0.5081 h -5.84129 z m 8.16143,31.38832 c 0,0.47833 -0.2729,0.53807 -2.18359,0.53807 -1.3649,0 -2.18379,-0.11958 -2.18379,-0.32888 0,-0.5081 1.91079,-14.07993 2.1018,-14.91691 0.13655,-0.62779 2.21102,12.91407 2.26558,14.70772 z m 19.29842,-32.73361 c -0.10922,0.0894 -0.19121,11.8678 -0.19121,26.15694 v 25.94774 h 19.38021 v -10.46278 h -9.00766 v -41.85109 h -4.99517 c -2.75691,0 -5.10438,0.0894 -5.18617,0.20919 z m 26.55896,25.94774 v 26.15694 h 19.38021 v -10.46278 l -4.55849,-0.0599 -4.58571,-0.0894 -0.0823,-20.86581 -0.0539,-20.83583 h -10.09945 z m 26.75008,0 v 26.15694 h 10.09955 v -52.31387 h -10.09955 z m 25.52183,-25.49927 c -0.32756,1.49464 -8.87131,50.84909 -8.87131,51.23771 0,0.32888 0.90089,0.4185 4.91328,0.4185 h 4.88604 l 0.16378,-0.98644 c 0.0823,-0.5083 0.38212,-2.57089 0.62789,-4.54386 l 0.49134,-3.58729 3.57571,-0.0894 3.57581,-0.0894 0.30023,2.03281 c 0.16378,1.10612 0.46401,3.16871 0.65512,4.57363 l 0.32756,2.54102 5.13151,0.0894 c 2.81158,0.0295 5.10449,0 5.10449,-0.0599 0,-0.23916 -8.73476,-50.75938 -8.92587,-51.53662 -0.13645,-0.65766 -0.16378,-0.65766 -5.97784,-0.65766 -5.81396,0 -5.84129,0 -5.97774,0.65766 z m 7.06963,25.05081 c 0.5459,4.03576 0.98268,7.44352 0.98268,7.56311 0,0.11958 -0.98268,0.20929 -2.18369,0.20929 -1.5559,0 -2.18369,-0.11958 -2.18369,-0.38862 -0.0274,-1.04627 2.04714,-15.12621 2.21092,-14.91702 0.0823,0.11959 0.62779,3.49769 1.17378,7.53324 z m 20.08989,0.44846 v 26.15694 h 9.82655 v -12.16671 c 0,-6.66629 0.0538,-12.077 0.13645,-12.01726 0.0539,0.0894 1.82891,5.5303 3.90338,12.10697 l 3.79415,11.92754 4.69483,0.0894 4.66771,0.0599 v -52.31396 l -4.83149,0.0599 -4.85861,0.0894 -0.0823,11.50915 -0.0823,11.50905 -3.63048,-11.50905 -3.63027,-11.50915 -4.96794,-0.0894 -4.9405,-0.0599 z m 64.96439,0 v 26.15694 h 21.01801 v -10.46278 h -10.64545 v -10.46277 h 9.28065 v -10.46277 h -9.28065 v -10.16387 h 10.37255 v -10.76168 h -20.74511 z"
     id="path3"
     style="stroke-width:0.285654" />
</svg>
